<svg width="77" height="55" viewBox="0 0 77 55" fill="none" xmlns="http://www.w3.org/2000/svg">
<path d="M77 6.48938C74.1176 7.61318 71.2224 8.46154 68.0141 8.74799C71.2224 7.05128 73.7917 4.23077 75.0699 1.1238C71.8615 2.82051 68.6532 3.94432 65.1317 4.51722C61.9234 1.69671 57.75 0 53.2635 0C44.5907 0 37.5349 6.20293 37.5349 13.8161C37.5349 14.9509 37.5349 16.0747 37.8609 16.9231C24.7017 16.3612 13.1592 10.9956 5.45166 2.53406C3.8475 4.51722 3.20833 7.05128 3.20833 9.58534C3.20833 14.389 6.09083 18.6198 10.2642 21.1538C7.69499 20.8674 5.13834 20.3055 3.20833 19.4571C3.20833 19.4571 3.20833 19.4571 3.20833 19.7436C3.20833 26.5083 8.66 32.1493 15.7158 33.2843C14.4375 33.5596 13.1592 33.8462 11.555 33.8462C10.59 33.8462 9.625 33.8462 8.66 33.5596C10.59 39.2006 16.3675 43.1561 23.4233 43.1561C17.9717 46.825 11.2292 49.0724 3.8475 49.0724C2.56917 49.0724 1.27832 49.0724 0 48.7971C7.05583 52.7413 15.4025 55 24.0625 55C53.2635 55 68.9792 33.8462 68.9792 15.5128C68.9792 14.9509 68.9792 14.389 68.9792 13.8161C72.1875 11.844 74.7567 9.30989 77 6.48938Z" fill="white"/>
</svg>
