<svg width="57" height="41" viewBox="0 0 57 41" fill="none" xmlns="http://www.w3.org/2000/svg">
<path d="M57 4.83754C54.8663 5.67528 52.7231 6.30769 50.3481 6.52123C52.7231 5.25641 54.625 3.15385 55.5712 0.837745C53.1962 2.10256 50.8212 2.94031 48.2144 3.36738C45.8394 1.26482 42.75 0 39.4288 0C33.0087 0 27.7856 4.624 27.7856 10.2993C27.7856 11.1452 27.7856 11.983 28.0269 12.6154C18.2856 12.1965 9.7412 8.19672 4.03565 1.88903C2.84815 3.36738 2.375 5.25641 2.375 7.14544C2.375 10.7264 4.50879 13.8802 7.59815 15.7692C5.69629 15.5557 3.8037 15.1368 2.375 14.5044C2.375 14.5044 2.375 14.5044 2.375 14.7179C2.375 19.7607 6.41065 23.9659 11.6338 24.8119C10.6875 25.0171 9.74121 25.2308 8.55371 25.2308C7.83935 25.2308 7.125 25.2308 6.41065 25.0171C7.83935 29.2223 12.1162 32.1709 17.3394 32.1709C13.3037 34.9059 8.3125 36.5812 2.84815 36.5812C1.90185 36.5812 0.94629 36.5813 0 36.376C5.22315 39.3163 11.4019 41 17.8125 41C39.4288 41 51.0625 25.2308 51.0625 11.5641C51.0625 11.1452 51.0625 10.7264 51.0625 10.2993C53.4375 8.82913 55.3394 6.9401 57 4.83754Z" fill="white"/>
</svg>
