<svg width="55" height="55" viewBox="0 0 55 55" fill="none" xmlns="http://www.w3.org/2000/svg">
<rect width="55" height="55" fill="white"/>
<path d="M52.6625 12.2375C51.1705 9.58375 49.5515 9.09563 46.255 8.91C42.962 8.68657 34.681 8.59375 27.5068 8.59375C20.319 8.59375 12.0347 8.68657 8.745 8.90657C5.4553 9.09562 3.8328 9.5803 2.32718 12.2375C0.790625 14.8878 0 19.4528 0 27.4897C0 27.4965 0 27.5 0 27.5C0 27.507 0 27.5103 0 27.5103V27.5172C0 35.5197 0.790625 40.119 2.32718 42.742C3.8328 45.3957 5.45187 45.877 8.74155 46.1003C12.0347 46.2928 20.319 46.4063 27.5068 46.4063C34.681 46.4063 42.9618 46.2928 46.2585 46.1037C49.555 45.8803 51.174 45.399 52.666 42.7453C54.2163 40.1225 55 35.523 55 27.5205C55 27.5205 55 27.5103 55 27.5035C55 27.5035 55 27.4965 55 27.4932C55 19.4528 54.2163 14.8878 52.6625 12.2375ZM20.625 37.8125V17.1875L37.8125 27.5L20.625 37.8125Z" fill="white"/>
</svg>
